<?xml version="1.0" encoding="utf-8"?>
<!-- Generator: Adobe Illustrator 24.0.0, SVG Export Plug-In . SVG Version: 6.00 Build 0)  -->
<svg version="1.1" xmlns="http://www.w3.org/2000/svg" xmlns:xlink="http://www.w3.org/1999/xlink" x="0px" y="0px"
	 viewBox="0 0 750 500" style="enable-background:new 0 0 750 500;" xml:space="preserve">
<style type="text/css">
	.st0{fill:#242424;}
	.st1{clip-path:url(#SVGID_2_);fill:#6B6B6A;}
	.st2{clip-path:url(#SVGID_2_);fill:#383838;}
	.st3{clip-path:url(#SVGID_2_);fill:#929493;}
	.st4{clip-path:url(#SVGID_2_);fill:#FDF400;}
	.st5{clip-path:url(#SVGID_2_);}
	.st6{fill:#6B6B6A;}
	.st7{fill:#939393;}
	.st8{fill:#F2F2F2;}
	.st9{clip-path:url(#SVGID_2_);fill:#E7E7E7;}
	.st10{clip-path:url(#SVGID_2_);fill:#939393;}
	.st11{fill:#929493;}
	.st12{fill:#383838;}
	.st13{fill:#FDF400;}
	.st14{clip-path:url(#SVGID_2_);fill:#242424;}
	.st15{fill:#E7E7E7;}
	.st16{clip-path:url(#SVGID_2_);fill:#F2F2F2;}
</style>
<g id="BACKGROUND">
	<rect class="st0" width="750" height="500"/>
</g>
<g id="OBJECTS">
	<g>
		<defs>
			<rect id="SVGID_1_" width="750" height="500"/>
		</defs>
		<clipPath id="SVGID_2_">
			<use xlink:href="#SVGID_1_"  style="overflow:visible;"/>
		</clipPath>
		<path class="st1" d="M86.9,367.2c-9.7,0-17.6-7.9-17.6-17.6c0-9.7,7.9-17.6,17.6-17.6s17.6,7.9,17.6,17.6
			C104.5,359.3,96.6,367.2,86.9,367.2z"/>
		<rect x="506.9" y="455.7" class="st2" width="207.1" height="44.3"/>
		
			<rect x="647.2" y="416.8" transform="matrix(-1.836970e-16 1 -1 -1.836970e-16 1147.167 -245.5071)" class="st3" width="98.3" height="68"/>
		<rect x="711" y="480.7" class="st4" width="39" height="19.3"/>
		<rect x="456.9" y="193.8" class="st2" width="160.1" height="160.1"/>
		<polygon class="st2" points="67.3,500.1 161.2,324.1 255,500.1 		"/>
		<g class="st5">
			<g>
				<rect x="506.2" y="140.3" class="st6" width="0.7" height="161"/>
				<rect x="530" y="140.3" class="st6" width="0.7" height="161"/>
				<rect x="553.7" y="140.3" class="st6" width="0.7" height="161"/>
				<rect x="577.4" y="140.3" class="st6" width="0.7" height="161"/>
				<rect x="601.2" y="140.3" class="st6" width="0.7" height="161"/>
				<rect x="624.9" y="140.3" class="st6" width="0.7" height="161"/>
			</g>
			<g>
				<rect x="485.4" y="161.1" class="st6" width="161" height="0.7"/>
				<rect x="485.4" y="184.8" class="st6" width="161" height="0.7"/>
				<rect x="485.4" y="208.6" class="st6" width="161" height="0.7"/>
				<rect x="485.4" y="232.3" class="st6" width="161" height="0.7"/>
				<rect x="485.4" y="256.1" class="st6" width="161" height="0.7"/>
				<rect x="485.4" y="279.8" class="st6" width="161" height="0.7"/>
			</g>
		</g>
		<g class="st5">
			<g>
				<rect x="117.5" y="435" class="st6" width="0.7" height="161"/>
				<rect x="141.2" y="435" class="st6" width="0.7" height="161"/>
				<rect x="165" y="435" class="st6" width="0.7" height="161"/>
				<rect x="188.7" y="435" class="st6" width="0.7" height="161"/>
				<rect x="212.4" y="435" class="st6" width="0.7" height="161"/>
				<rect x="236.2" y="435" class="st6" width="0.7" height="161"/>
			</g>
			<g>
				<rect x="96.7" y="455.8" class="st6" width="161" height="0.7"/>
				<rect x="96.7" y="479.6" class="st6" width="161" height="0.7"/>
				<rect x="96.7" y="503.3" class="st6" width="161" height="0.7"/>
				<rect x="96.7" y="527" class="st6" width="161" height="0.7"/>
				<rect x="96.7" y="550.8" class="st6" width="161" height="0.7"/>
				<rect x="96.7" y="574.5" class="st6" width="161" height="0.7"/>
			</g>
		</g>
		<circle class="st2" cx="635.8" cy="53.1" r="87.2"/>
		<circle class="st2" cx="175" cy="204.5" r="58.5"/>
		<rect x="177.2" class="st2" width="198.5" height="29.2"/>
		<g class="st5">
			<polygon class="st7" points="63.8,220.9 39,245.7 39,244.3 63.8,219.5 			"/>
			<polygon class="st7" points="63.8,233.7 39,258.5 39,257.1 63.8,232.3 			"/>
			<polygon class="st7" points="63.8,246.6 39,271.3 39,269.9 63.8,245.1 			"/>
			<polygon class="st7" points="63.8,259.4 39,284.1 39,282.7 63.8,258 			"/>
			<polygon class="st7" points="63.8,272.2 39,296.9 39,295.5 63.8,270.8 			"/>
			<polygon class="st7" points="63.8,285 39,309.8 39,308.3 63.8,283.6 			"/>
			<polygon class="st7" points="63.8,297.8 39,322.6 39,321.2 63.8,296.4 			"/>
		</g>
		<g class="st5">
			<polygon class="st8" points="657.4,94.4 682.2,119.1 682.2,117.7 657.4,93 			"/>
			<polygon class="st8" points="657.4,107.2 682.2,131.9 682.2,130.5 657.4,105.8 			"/>
			<polygon class="st8" points="657.4,120 682.2,144.8 682.2,143.3 657.4,118.6 			"/>
			<polygon class="st8" points="657.4,132.8 682.2,157.6 682.2,156.1 657.4,131.4 			"/>
			<polygon class="st8" points="657.4,145.6 682.2,170.4 682.2,169 657.4,144.2 			"/>
			<polygon class="st8" points="657.4,158.4 682.2,183.2 682.2,181.8 657.4,157 			"/>
			<polygon class="st8" points="657.4,171.2 682.2,196 682.2,194.6 657.4,169.8 			"/>
			<polygon class="st8" points="657.4,184.1 682.2,208.8 682.2,207.4 657.4,182.6 			"/>
			<polygon class="st8" points="657.4,196.9 682.2,221.6 682.2,220.2 657.4,195.5 			"/>
			<polygon class="st8" points="657.4,209.7 682.2,234.4 682.2,233 657.4,208.3 			"/>
			<polygon class="st8" points="657.4,222.5 682.2,247.3 682.2,245.8 657.4,221.1 			"/>
			<polygon class="st8" points="657.4,235.3 682.2,260.1 682.2,258.7 657.4,233.9 			"/>
			<polygon class="st8" points="657.4,248.1 682.2,272.9 682.2,271.5 657.4,246.7 			"/>
			<polygon class="st8" points="657.4,260.9 682.2,285.7 682.2,284.3 657.4,259.5 			"/>
		</g>
		<path class="st4" d="M292,268.7l-53.1-84.9l-79.2,108.8L292,268.7z M289.9,267.2L234,242.5l5.2-56.3L289.9,267.2z M238.2,186.4
			l-5.2,56.1l-70.2,47.3L238.2,186.4z M163,290.9l70.5-47.5l56,24.7L163,290.9z"/>
		<path class="st9" d="M118.5,60.1c0-0.6-0.4-1-1-1H56.9c-0.1,0-0.3,0-0.4,0.1c-0.1,0.1-0.2,0.1-0.3,0.2L25.9,89.7
			c-0.2,0.2-0.3,0.4-0.3,0.7V151c0,0.1,0,0.3,0.1,0.4c0.1,0.2,0.3,0.4,0.5,0.5c0.1,0.1,0.3,0.1,0.4,0.1h60.6c0.3,0,0.5-0.1,0.7-0.3
			l30.3-30.3c0.1-0.1,0.2-0.2,0.2-0.3c0.1-0.1,0.1-0.3,0.1-0.4V60.1z M116.5,119.7H57.9V61.1h58.6V119.7z M73.6,150l28.3-28.3h6.9
			L80.5,150H73.6z M66,150l28.3-28.3h6.9L72.9,150H66z M58.4,150l28.3-28.3h6.9L65.3,150H58.4z M50.8,150l28.3-28.3H86L57.7,150
			H50.8z M43.2,150l28.3-28.3h6.9L50.1,150H43.2z M35.6,150l28.3-28.3h6.9L42.5,150H35.6z M29.1,150l28.3-28.3h5.8L34.9,150H29.1z
			 M27.6,104.7l28.3-28.3v6.9l-28.3,28.3V104.7z M27.6,112.3L55.9,84v6.9l-28.3,28.3V112.3z M27.6,119.9l28.3-28.3v6.9l-28.3,28.3
			V119.9z M27.6,127.5l28.3-28.3v6.9l-28.3,28.3V127.5z M27.6,135.2l28.3-28.3v6.9l-28.3,28.3V135.2z M55.9,75.7L27.6,104v-6.9
			l28.3-28.3V75.7z M27.6,142.8l28.3-28.3v5.8l-28.3,28.3V142.8z M55.9,62.6v5.5L27.6,96.4v-5.5L55.9,62.6z M86.8,150h-5.7
			l28.3-28.3h5.7L86.8,150z"/>
		<path class="st10" d="M699.5,121.1c-0.6,0-1,0.4-1,1v60.6c0,0.1,0,0.3,0.1,0.4c0.1,0.1,0.1,0.2,0.2,0.3l30.3,30.3
			c0.2,0.2,0.4,0.3,0.7,0.3h60.6c0.1,0,0.3,0,0.4-0.1c0.2-0.1,0.4-0.3,0.5-0.5c0.1-0.1,0.1-0.3,0.1-0.4v-60.6c0-0.3-0.1-0.5-0.3-0.7
			l-30.3-30.3c-0.1-0.1-0.2-0.2-0.3-0.2c-0.1-0.1-0.3-0.1-0.4-0.1H699.5z M759.1,123.1v58.6h-58.6v-58.6H759.1z M789.4,166
			l-28.3-28.3v-6.9l28.3,28.3V166z M789.4,173.6l-28.3-28.3v-6.9l28.3,28.3V173.6z M789.4,181.2l-28.3-28.3V146l28.3,28.3V181.2z
			 M789.4,188.8l-28.3-28.3v-6.9l28.3,28.3V188.8z M789.4,196.4l-28.3-28.3v-6.9l28.3,28.3V196.4z M789.4,204l-28.3-28.3v-6.9
			l28.3,28.3V204z M789.4,210.6l-28.3-28.3v-5.8l28.3,28.3V210.6z M744,212l-28.3-28.3h6.9l28.3,28.3H744z M751.6,212l-28.3-28.3
			h6.9l28.3,28.3H751.6z M759.3,212L731,183.7h6.9l28.3,28.3H759.3z M766.9,212l-28.3-28.3h6.9l28.3,28.3H766.9z M774.5,212
			l-28.3-28.3h6.9l28.3,28.3H774.5z M715,183.7l28.3,28.3h-6.9l-28.3-28.3H715z M782.1,212l-28.3-28.3h5.8L788,212H782.1z
			 M701.9,183.7h5.5l28.3,28.3h-5.5L701.9,183.7z M789.4,152.8v5.7l-28.3-28.3v-5.7L789.4,152.8z"/>
		<g class="st5">
			<path class="st11" d="M65.8,18.1c0,1,0.8,1.8,1.8,1.8c1,0,1.8-0.8,1.8-1.8c0-1-0.8-1.8-1.8-1.8C66.6,16.3,65.8,17.1,65.8,18.1z"
				/>
			<path class="st11" d="M85.8,18.1c0,1,0.8,1.8,1.8,1.8c1,0,1.8-0.8,1.8-1.8c0-1-0.8-1.8-1.8-1.8C86.6,16.3,85.8,17.1,85.8,18.1z"
				/>
			<path class="st11" d="M105.7,18.1c0,1,0.8,1.8,1.8,1.8c1,0,1.8-0.8,1.8-1.8c0-1-0.8-1.8-1.8-1.8
				C106.6,16.3,105.7,17.1,105.7,18.1z"/>
			<path class="st11" d="M125.7,18.1c0,1,0.8,1.8,1.8,1.8c1,0,1.8-0.8,1.8-1.8c0-1-0.8-1.8-1.8-1.8
				C126.5,16.3,125.7,17.1,125.7,18.1z"/>
			<path class="st11" d="M145.7,18.1c0,1,0.8,1.8,1.8,1.8s1.8-0.8,1.8-1.8c0-1-0.8-1.8-1.8-1.8S145.7,17.1,145.7,18.1z"/>
			<path class="st11" d="M165.6,18.1c0,1,0.8,1.8,1.8,1.8s1.8-0.8,1.8-1.8c0-1-0.8-1.8-1.8-1.8S165.6,17.1,165.6,18.1z"/>
			<path class="st11" d="M185.6,18.1c0,1,0.8,1.8,1.8,1.8c1,0,1.8-0.8,1.8-1.8c0-1-0.8-1.8-1.8-1.8
				C186.4,16.3,185.6,17.1,185.6,18.1z"/>
			<path class="st11" d="M205.5,18.1c0,1,0.8,1.8,1.8,1.8c1,0,1.8-0.8,1.8-1.8c0-1-0.8-1.8-1.8-1.8
				C206.3,16.3,205.5,17.1,205.5,18.1z"/>
			<path class="st11" d="M225.5,18.1c0,1,0.8,1.8,1.8,1.8c1,0,1.8-0.8,1.8-1.8c0-1-0.8-1.8-1.8-1.8
				C226.3,16.3,225.5,17.1,225.5,18.1z"/>
			<path class="st11" d="M245.5,18.1c0,1,0.8,1.8,1.8,1.8c1,0,1.8-0.8,1.8-1.8c0-1-0.8-1.8-1.8-1.8
				C246.3,16.3,245.5,17.1,245.5,18.1z"/>
			<path class="st11" d="M265.4,18.1c0,1,0.8,1.8,1.8,1.8c1,0,1.8-0.8,1.8-1.8c0-1-0.8-1.8-1.8-1.8
				C266.2,16.3,265.4,17.1,265.4,18.1z"/>
			<path class="st11" d="M285.4,18.1c0,1,0.8,1.8,1.8,1.8c1,0,1.8-0.8,1.8-1.8c0-1-0.8-1.8-1.8-1.8
				C286.2,16.3,285.4,17.1,285.4,18.1z"/>
			<path class="st11" d="M305.3,18.1c0,1,0.8,1.8,1.8,1.8c1,0,1.8-0.8,1.8-1.8c0-1-0.8-1.8-1.8-1.8
				C306.1,16.3,305.3,17.1,305.3,18.1z"/>
			<path class="st11" d="M65.8,35.1c0,1,0.8,1.8,1.8,1.8c1,0,1.8-0.8,1.8-1.8c0-1-0.8-1.8-1.8-1.8C66.6,33.3,65.8,34.1,65.8,35.1z"
				/>
			<path class="st11" d="M85.8,35.1c0,1,0.8,1.8,1.8,1.8c1,0,1.8-0.8,1.8-1.8c0-1-0.8-1.8-1.8-1.8C86.6,33.3,85.8,34.1,85.8,35.1z"
				/>
			<path class="st11" d="M105.7,35.1c0,1,0.8,1.8,1.8,1.8c1,0,1.8-0.8,1.8-1.8c0-1-0.8-1.8-1.8-1.8
				C106.6,33.3,105.7,34.1,105.7,35.1z"/>
			<path class="st11" d="M125.7,35.1c0,1,0.8,1.8,1.8,1.8c1,0,1.8-0.8,1.8-1.8c0-1-0.8-1.8-1.8-1.8
				C126.5,33.3,125.7,34.1,125.7,35.1z"/>
			<path class="st11" d="M145.7,35.1c0,1,0.8,1.8,1.8,1.8s1.8-0.8,1.8-1.8c0-1-0.8-1.8-1.8-1.8S145.7,34.1,145.7,35.1z"/>
			<path class="st11" d="M165.6,35.1c0,1,0.8,1.8,1.8,1.8s1.8-0.8,1.8-1.8c0-1-0.8-1.8-1.8-1.8S165.6,34.1,165.6,35.1z"/>
			<path class="st11" d="M185.6,35.1c0,1,0.8,1.8,1.8,1.8c1,0,1.8-0.8,1.8-1.8c0-1-0.8-1.8-1.8-1.8
				C186.4,33.3,185.6,34.1,185.6,35.1z"/>
			<path class="st11" d="M205.5,35.1c0,1,0.8,1.8,1.8,1.8c1,0,1.8-0.8,1.8-1.8c0-1-0.8-1.8-1.8-1.8
				C206.3,33.3,205.5,34.1,205.5,35.1z"/>
			<path class="st11" d="M225.5,35.1c0,1,0.8,1.8,1.8,1.8c1,0,1.8-0.8,1.8-1.8c0-1-0.8-1.8-1.8-1.8
				C226.3,33.3,225.5,34.1,225.5,35.1z"/>
			<path class="st11" d="M245.5,35.1c0,1,0.8,1.8,1.8,1.8c1,0,1.8-0.8,1.8-1.8c0-1-0.8-1.8-1.8-1.8
				C246.3,33.3,245.5,34.1,245.5,35.1z"/>
			<path class="st11" d="M265.4,35.1c0,1,0.8,1.8,1.8,1.8c1,0,1.8-0.8,1.8-1.8c0-1-0.8-1.8-1.8-1.8
				C266.2,33.3,265.4,34.1,265.4,35.1z"/>
			<path class="st11" d="M285.4,35.1c0,1,0.8,1.8,1.8,1.8c1,0,1.8-0.8,1.8-1.8c0-1-0.8-1.8-1.8-1.8
				C286.2,33.3,285.4,34.1,285.4,35.1z"/>
			<path class="st11" d="M305.3,35.1c0,1,0.8,1.8,1.8,1.8c1,0,1.8-0.8,1.8-1.8c0-1-0.8-1.8-1.8-1.8
				C306.1,33.3,305.3,34.1,305.3,35.1z"/>
			<path class="st11" d="M65.8,52.1c0,1,0.8,1.8,1.8,1.8c1,0,1.8-0.8,1.8-1.8c0-1-0.8-1.8-1.8-1.8C66.6,50.3,65.8,51.1,65.8,52.1z"
				/>
			<path class="st11" d="M85.8,52.1c0,1,0.8,1.8,1.8,1.8c1,0,1.8-0.8,1.8-1.8c0-1-0.8-1.8-1.8-1.8C86.6,50.3,85.8,51.1,85.8,52.1z"
				/>
			<path class="st11" d="M105.7,52.1c0,1,0.8,1.8,1.8,1.8c1,0,1.8-0.8,1.8-1.8c0-1-0.8-1.8-1.8-1.8
				C106.6,50.3,105.7,51.1,105.7,52.1z"/>
			<path class="st11" d="M125.7,52.1c0,1,0.8,1.8,1.8,1.8c1,0,1.8-0.8,1.8-1.8c0-1-0.8-1.8-1.8-1.8
				C126.5,50.3,125.7,51.1,125.7,52.1z"/>
			<path class="st11" d="M145.7,52.1c0,1,0.8,1.8,1.8,1.8s1.8-0.8,1.8-1.8c0-1-0.8-1.8-1.8-1.8S145.7,51.1,145.7,52.1z"/>
			<path class="st11" d="M165.6,52.1c0,1,0.8,1.8,1.8,1.8s1.8-0.8,1.8-1.8c0-1-0.8-1.8-1.8-1.8S165.6,51.1,165.6,52.1z"/>
			<path class="st11" d="M185.6,52.1c0,1,0.8,1.8,1.8,1.8c1,0,1.8-0.8,1.8-1.8c0-1-0.8-1.8-1.8-1.8
				C186.4,50.3,185.6,51.1,185.6,52.1z"/>
			<path class="st11" d="M205.5,52.1c0,1,0.8,1.8,1.8,1.8c1,0,1.8-0.8,1.8-1.8c0-1-0.8-1.8-1.8-1.8
				C206.3,50.3,205.5,51.1,205.5,52.1z"/>
			<path class="st11" d="M225.5,52.1c0,1,0.8,1.8,1.8,1.8c1,0,1.8-0.8,1.8-1.8c0-1-0.8-1.8-1.8-1.8
				C226.3,50.3,225.5,51.1,225.5,52.1z"/>
			<path class="st11" d="M245.5,52.1c0,1,0.8,1.8,1.8,1.8c1,0,1.8-0.8,1.8-1.8c0-1-0.8-1.8-1.8-1.8
				C246.3,50.3,245.5,51.1,245.5,52.1z"/>
			<path class="st11" d="M265.4,52.1c0,1,0.8,1.8,1.8,1.8c1,0,1.8-0.8,1.8-1.8c0-1-0.8-1.8-1.8-1.8
				C266.2,50.3,265.4,51.1,265.4,52.1z"/>
			<path class="st11" d="M285.4,52.1c0,1,0.8,1.8,1.8,1.8c1,0,1.8-0.8,1.8-1.8c0-1-0.8-1.8-1.8-1.8
				C286.2,50.3,285.4,51.1,285.4,52.1z"/>
			<path class="st11" d="M305.3,52.1c0,1,0.8,1.8,1.8,1.8c1,0,1.8-0.8,1.8-1.8c0-1-0.8-1.8-1.8-1.8
				C306.1,50.3,305.3,51.1,305.3,52.1z"/>
			<path class="st11" d="M65.8,69.1c0,1,0.8,1.8,1.8,1.8c1,0,1.8-0.8,1.8-1.8c0-1-0.8-1.8-1.8-1.8C66.6,67.3,65.8,68.1,65.8,69.1z"
				/>
			<path class="st11" d="M85.8,69.1c0,1,0.8,1.8,1.8,1.8c1,0,1.8-0.8,1.8-1.8c0-1-0.8-1.8-1.8-1.8C86.6,67.3,85.8,68.1,85.8,69.1z"
				/>
			<path class="st11" d="M105.7,69.1c0,1,0.8,1.8,1.8,1.8c1,0,1.8-0.8,1.8-1.8c0-1-0.8-1.8-1.8-1.8
				C106.6,67.3,105.7,68.1,105.7,69.1z"/>
			<path class="st11" d="M125.7,69.1c0,1,0.8,1.8,1.8,1.8c1,0,1.8-0.8,1.8-1.8c0-1-0.8-1.8-1.8-1.8
				C126.5,67.3,125.7,68.1,125.7,69.1z"/>
			<path class="st11" d="M145.7,69.1c0,1,0.8,1.8,1.8,1.8s1.8-0.8,1.8-1.8c0-1-0.8-1.8-1.8-1.8S145.7,68.1,145.7,69.1z"/>
			<path class="st11" d="M165.6,69.1c0,1,0.8,1.8,1.8,1.8s1.8-0.8,1.8-1.8c0-1-0.8-1.8-1.8-1.8S165.6,68.1,165.6,69.1z"/>
			<path class="st11" d="M185.6,69.1c0,1,0.8,1.8,1.8,1.8c1,0,1.8-0.8,1.8-1.8c0-1-0.8-1.8-1.8-1.8
				C186.4,67.3,185.6,68.1,185.6,69.1z"/>
			<path class="st11" d="M205.5,69.1c0,1,0.8,1.8,1.8,1.8c1,0,1.8-0.8,1.8-1.8c0-1-0.8-1.8-1.8-1.8
				C206.3,67.3,205.5,68.1,205.5,69.1z"/>
			<path class="st11" d="M225.5,69.1c0,1,0.8,1.8,1.8,1.8c1,0,1.8-0.8,1.8-1.8c0-1-0.8-1.8-1.8-1.8
				C226.3,67.3,225.5,68.1,225.5,69.1z"/>
			<path class="st11" d="M245.5,69.1c0,1,0.8,1.8,1.8,1.8c1,0,1.8-0.8,1.8-1.8c0-1-0.8-1.8-1.8-1.8
				C246.3,67.3,245.5,68.1,245.5,69.1z"/>
			<path class="st11" d="M265.4,69.1c0,1,0.8,1.8,1.8,1.8c1,0,1.8-0.8,1.8-1.8c0-1-0.8-1.8-1.8-1.8
				C266.2,67.3,265.4,68.1,265.4,69.1z"/>
			<path class="st11" d="M285.4,69.1c0,1,0.8,1.8,1.8,1.8c1,0,1.8-0.8,1.8-1.8c0-1-0.8-1.8-1.8-1.8
				C286.2,67.3,285.4,68.1,285.4,69.1z"/>
			<path class="st11" d="M305.3,69.1c0,1,0.8,1.8,1.8,1.8c1,0,1.8-0.8,1.8-1.8c0-1-0.8-1.8-1.8-1.8
				C306.1,67.3,305.3,68.1,305.3,69.1z"/>
			<path class="st11" d="M65.8,86.1c0,1,0.8,1.8,1.8,1.8c1,0,1.8-0.8,1.8-1.8c0-1-0.8-1.8-1.8-1.8C66.6,84.3,65.8,85.1,65.8,86.1z"
				/>
			<path class="st11" d="M85.8,86.1c0,1,0.8,1.8,1.8,1.8c1,0,1.8-0.8,1.8-1.8c0-1-0.8-1.8-1.8-1.8C86.6,84.3,85.8,85.1,85.8,86.1z"
				/>
			<path class="st11" d="M105.7,86.1c0,1,0.8,1.8,1.8,1.8c1,0,1.8-0.8,1.8-1.8c0-1-0.8-1.8-1.8-1.8
				C106.6,84.3,105.7,85.1,105.7,86.1z"/>
			<circle class="st11" cx="127.5" cy="86.1" r="1.8"/>
			<circle class="st11" cx="147.5" cy="86.1" r="1.8"/>
			<circle class="st11" cx="167.4" cy="86.1" r="1.8"/>
			<path class="st11" d="M185.6,86.1c0,1,0.8,1.8,1.8,1.8c1,0,1.8-0.8,1.8-1.8c0-1-0.8-1.8-1.8-1.8
				C186.4,84.3,185.6,85.1,185.6,86.1z"/>
			<path class="st11" d="M205.5,86.1c0,1,0.8,1.8,1.8,1.8c1,0,1.8-0.8,1.8-1.8c0-1-0.8-1.8-1.8-1.8
				C206.3,84.3,205.5,85.1,205.5,86.1z"/>
			<path class="st11" d="M225.5,86.1c0,1,0.8,1.8,1.8,1.8c1,0,1.8-0.8,1.8-1.8c0-1-0.8-1.8-1.8-1.8
				C226.3,84.3,225.5,85.1,225.5,86.1z"/>
			<path class="st11" d="M245.5,86.1c0,1,0.8,1.8,1.8,1.8c1,0,1.8-0.8,1.8-1.8c0-1-0.8-1.8-1.8-1.8
				C246.3,84.3,245.5,85.1,245.5,86.1z"/>
			<path class="st11" d="M265.4,86.1c0,1,0.8,1.8,1.8,1.8c1,0,1.8-0.8,1.8-1.8c0-1-0.8-1.8-1.8-1.8
				C266.2,84.3,265.4,85.1,265.4,86.1z"/>
			<path class="st11" d="M285.4,86.1c0,1,0.8,1.8,1.8,1.8c1,0,1.8-0.8,1.8-1.8c0-1-0.8-1.8-1.8-1.8
				C286.2,84.3,285.4,85.1,285.4,86.1z"/>
			<path class="st11" d="M305.3,86.1c0,1,0.8,1.8,1.8,1.8c1,0,1.8-0.8,1.8-1.8c0-1-0.8-1.8-1.8-1.8
				C306.1,84.3,305.3,85.1,305.3,86.1z"/>
			<path class="st11" d="M65.8,103.1c0,1,0.8,1.8,1.8,1.8c1,0,1.8-0.8,1.8-1.8c0-1-0.8-1.8-1.8-1.8
				C66.6,101.3,65.8,102.1,65.8,103.1z"/>
			<path class="st11" d="M85.8,103.1c0,1,0.8,1.8,1.8,1.8c1,0,1.8-0.8,1.8-1.8c0-1-0.8-1.8-1.8-1.8
				C86.6,101.3,85.8,102.1,85.8,103.1z"/>
			<path class="st11" d="M105.7,103.1c0,1,0.8,1.8,1.8,1.8c1,0,1.8-0.8,1.8-1.8c0-1-0.8-1.8-1.8-1.8
				C106.6,101.3,105.7,102.1,105.7,103.1z"/>
			<path class="st11" d="M125.7,103.1c0,1,0.8,1.8,1.8,1.8c1,0,1.8-0.8,1.8-1.8c0-1-0.8-1.8-1.8-1.8
				C126.5,101.3,125.7,102.1,125.7,103.1z"/>
			<path class="st11" d="M145.7,103.1c0,1,0.8,1.8,1.8,1.8s1.8-0.8,1.8-1.8c0-1-0.8-1.8-1.8-1.8S145.7,102.1,145.7,103.1z"/>
			<path class="st11" d="M165.6,103.1c0,1,0.8,1.8,1.8,1.8s1.8-0.8,1.8-1.8c0-1-0.8-1.8-1.8-1.8S165.6,102.1,165.6,103.1z"/>
			<path class="st11" d="M185.6,103.1c0,1,0.8,1.8,1.8,1.8c1,0,1.8-0.8,1.8-1.8c0-1-0.8-1.8-1.8-1.8
				C186.4,101.3,185.6,102.1,185.6,103.1z"/>
			<path class="st11" d="M205.5,103.1c0,1,0.8,1.8,1.8,1.8c1,0,1.8-0.8,1.8-1.8c0-1-0.8-1.8-1.8-1.8
				C206.3,101.3,205.5,102.1,205.5,103.1z"/>
			<path class="st11" d="M225.5,103.1c0,1,0.8,1.8,1.8,1.8c1,0,1.8-0.8,1.8-1.8c0-1-0.8-1.8-1.8-1.8
				C226.3,101.3,225.5,102.1,225.5,103.1z"/>
			<path class="st11" d="M245.5,103.1c0,1,0.8,1.8,1.8,1.8c1,0,1.8-0.8,1.8-1.8c0-1-0.8-1.8-1.8-1.8
				C246.3,101.3,245.5,102.1,245.5,103.1z"/>
			<path class="st11" d="M265.4,103.1c0,1,0.8,1.8,1.8,1.8c1,0,1.8-0.8,1.8-1.8c0-1-0.8-1.8-1.8-1.8
				C266.2,101.3,265.4,102.1,265.4,103.1z"/>
			<path class="st11" d="M285.4,103.1c0,1,0.8,1.8,1.8,1.8c1,0,1.8-0.8,1.8-1.8c0-1-0.8-1.8-1.8-1.8
				C286.2,101.3,285.4,102.1,285.4,103.1z"/>
			<path class="st11" d="M305.3,103.1c0,1,0.8,1.8,1.8,1.8c1,0,1.8-0.8,1.8-1.8c0-1-0.8-1.8-1.8-1.8
				C306.1,101.3,305.3,102.1,305.3,103.1z"/>
		</g>
		<g class="st5">
			<path class="st8" d="M653.9,467.9c0.6,0,1.1,0.5,1.1,1.1c0,0.6-0.5,1.1-1.1,1.1c-0.6,0-1.1-0.5-1.1-1.1
				C652.8,468.4,653.3,467.9,653.9,467.9z"/>
			<path class="st8" d="M653.9,487.8c0.6,0,1.1,0.5,1.1,1.1c0,0.6-0.5,1.1-1.1,1.1c-0.6,0-1.1-0.5-1.1-1.1
				C652.8,488.3,653.3,487.8,653.9,487.8z"/>
			<path class="st8" d="M636.9,467.9c0.6,0,1.1,0.5,1.1,1.1c0,0.6-0.5,1.1-1.1,1.1s-1.1-0.5-1.1-1.1
				C635.8,468.4,636.3,467.9,636.9,467.9z"/>
			<path class="st8" d="M636.9,487.8c0.6,0,1.1,0.5,1.1,1.1c0,0.6-0.5,1.1-1.1,1.1s-1.1-0.5-1.1-1.1
				C635.8,488.3,636.3,487.8,636.9,487.8z"/>
			<path class="st8" d="M619.9,467.9c0.6,0,1.1,0.5,1.1,1.1c0,0.6-0.5,1.1-1.1,1.1s-1.1-0.5-1.1-1.1
				C618.8,468.4,619.3,467.9,619.9,467.9z"/>
			<path class="st8" d="M619.9,487.8c0.6,0,1.1,0.5,1.1,1.1c0,0.6-0.5,1.1-1.1,1.1s-1.1-0.5-1.1-1.1
				C618.8,488.3,619.3,487.8,619.9,487.8z"/>
			<path class="st8" d="M602.9,467.9c0.6,0,1.1,0.5,1.1,1.1c0,0.6-0.5,1.1-1.1,1.1c-0.6,0-1.1-0.5-1.1-1.1
				C601.8,468.4,602.3,467.9,602.9,467.9z"/>
			<path class="st8" d="M602.9,487.8c0.6,0,1.1,0.5,1.1,1.1c0,0.6-0.5,1.1-1.1,1.1c-0.6,0-1.1-0.5-1.1-1.1
				C601.8,488.3,602.3,487.8,602.9,487.8z"/>
			<path class="st8" d="M585.9,467.9c0.6,0,1.1,0.5,1.1,1.1c0,0.6-0.5,1.1-1.1,1.1s-1.1-0.5-1.1-1.1
				C584.8,468.4,585.3,467.9,585.9,467.9z"/>
			<path class="st8" d="M585.9,487.8c0.6,0,1.1,0.5,1.1,1.1c0,0.6-0.5,1.1-1.1,1.1s-1.1-0.5-1.1-1.1
				C584.8,488.3,585.3,487.8,585.9,487.8z"/>
			<path class="st8" d="M738.9,248.3c0.6,0,1.1,0.5,1.1,1.1s-0.5,1.1-1.1,1.1c-0.6,0-1.1-0.5-1.1-1.1S738.3,248.3,738.9,248.3z"/>
			<path class="st8" d="M738.9,268.3c0.6,0,1.1,0.5,1.1,1.1c0,0.6-0.5,1.1-1.1,1.1c-0.6,0-1.1-0.5-1.1-1.1
				C737.8,268.8,738.3,268.3,738.9,268.3z"/>
			<path class="st8" d="M738.9,288.2c0.6,0,1.1,0.5,1.1,1.1c0,0.6-0.5,1.1-1.1,1.1c-0.6,0-1.1-0.5-1.1-1.1
				C737.8,288.7,738.3,288.2,738.9,288.2z"/>
			<path class="st8" d="M738.9,308.2c0.6,0,1.1,0.5,1.1,1.1c0,0.6-0.5,1.1-1.1,1.1c-0.6,0-1.1-0.5-1.1-1.1
				C737.8,308.7,738.3,308.2,738.9,308.2z"/>
			<path class="st8" d="M738.9,328.2c0.6,0,1.1,0.5,1.1,1.1c0,0.6-0.5,1.1-1.1,1.1c-0.6,0-1.1-0.5-1.1-1.1
				C737.8,328.6,738.3,328.2,738.9,328.2z"/>
			<path class="st8" d="M738.9,348.1c0.6,0,1.1,0.5,1.1,1.1c0,0.6-0.5,1.1-1.1,1.1c-0.6,0-1.1-0.5-1.1-1.1
				C737.8,348.6,738.3,348.1,738.9,348.1z"/>
			<path class="st8" d="M738.9,368.1c0.6,0,1.1,0.5,1.1,1.1c0,0.6-0.5,1.1-1.1,1.1c-0.6,0-1.1-0.5-1.1-1.1
				C737.8,368.6,738.3,368.1,738.9,368.1z"/>
			<path class="st8" d="M738.9,388c0.6,0,1.1,0.5,1.1,1.1c0,0.6-0.5,1.1-1.1,1.1c-0.6,0-1.1-0.5-1.1-1.1
				C737.8,388.5,738.3,388,738.9,388z"/>
			<path class="st8" d="M738.9,408c0.6,0,1.1,0.5,1.1,1.1c0,0.6-0.5,1.1-1.1,1.1c-0.6,0-1.1-0.5-1.1-1.1
				C737.8,408.5,738.3,408,738.9,408z"/>
			<path class="st8" d="M738.9,427.9c0.6,0,1.1,0.5,1.1,1.1c0,0.6-0.5,1.1-1.1,1.1c-0.6,0-1.1-0.5-1.1-1.1
				C737.8,428.4,738.3,427.9,738.9,427.9z"/>
			<path class="st8" d="M738.9,447.9c0.6,0,1.1,0.5,1.1,1.1c0,0.6-0.5,1.1-1.1,1.1c-0.6,0-1.1-0.5-1.1-1.1
				C737.8,448.4,738.3,447.9,738.9,447.9z"/>
			<path class="st8" d="M738.9,467.9c0.6,0,1.1,0.5,1.1,1.1c0,0.6-0.5,1.1-1.1,1.1c-0.6,0-1.1-0.5-1.1-1.1
				C737.8,468.4,738.3,467.9,738.9,467.9z"/>
			<path class="st12" d="M738.9,487.8c0.6,0,1.1,0.5,1.1,1.1c0,0.6-0.5,1.1-1.1,1.1c-0.6,0-1.1-0.5-1.1-1.1
				C737.8,488.3,738.3,487.8,738.9,487.8z"/>
			<circle class="st8" cx="721.9" cy="249.4" r="1.1"/>
			<path class="st8" d="M721.9,268.3c0.6,0,1.1,0.5,1.1,1.1c0,0.6-0.5,1.1-1.1,1.1s-1.1-0.5-1.1-1.1
				C720.8,268.8,721.3,268.3,721.9,268.3z"/>
			<path class="st8" d="M721.9,288.2c0.6,0,1.1,0.5,1.1,1.1c0,0.6-0.5,1.1-1.1,1.1s-1.1-0.5-1.1-1.1
				C720.8,288.7,721.3,288.2,721.9,288.2z"/>
			<path class="st8" d="M721.9,308.2c0.6,0,1.1,0.5,1.1,1.1c0,0.6-0.5,1.1-1.1,1.1s-1.1-0.5-1.1-1.1
				C720.8,308.7,721.3,308.2,721.9,308.2z"/>
			<circle class="st8" cx="721.9" cy="329.2" r="1.1"/>
			<circle class="st8" cx="721.9" cy="349.2" r="1.1"/>
			<circle class="st8" cx="721.9" cy="369.2" r="1.1"/>
			<circle class="st8" cx="721.9" cy="389.1" r="1.1"/>
			<circle class="st8" cx="721.9" cy="409.1" r="1.1"/>
			<circle class="st8" cx="721.9" cy="429" r="1.1"/>
			<circle class="st8" cx="721.9" cy="449" r="1.1"/>
			<path class="st8" d="M721.9,467.9c0.6,0,1.1,0.5,1.1,1.1c0,0.6-0.5,1.1-1.1,1.1s-1.1-0.5-1.1-1.1
				C720.8,468.4,721.3,467.9,721.9,467.9z"/>
			<path class="st12" d="M721.9,487.8c0.6,0,1.1,0.5,1.1,1.1c0,0.6-0.5,1.1-1.1,1.1s-1.1-0.5-1.1-1.1
				C720.8,488.3,721.3,487.8,721.9,487.8z"/>
			<path class="st8" d="M704.9,248.3c0.6,0,1.1,0.5,1.1,1.1s-0.5,1.1-1.1,1.1c-0.6,0-1.1-0.5-1.1-1.1S704.3,248.3,704.9,248.3z"/>
			<path class="st8" d="M704.9,268.3c0.6,0,1.1,0.5,1.1,1.1c0,0.6-0.5,1.1-1.1,1.1c-0.6,0-1.1-0.5-1.1-1.1
				C703.8,268.8,704.3,268.3,704.9,268.3z"/>
			<path class="st8" d="M704.9,288.2c0.6,0,1.1,0.5,1.1,1.1c0,0.6-0.5,1.1-1.1,1.1c-0.6,0-1.1-0.5-1.1-1.1
				C703.8,288.7,704.3,288.2,704.9,288.2z"/>
			<path class="st8" d="M704.9,308.2c0.6,0,1.1,0.5,1.1,1.1c0,0.6-0.5,1.1-1.1,1.1c-0.6,0-1.1-0.5-1.1-1.1
				C703.8,308.7,704.3,308.2,704.9,308.2z"/>
			<path class="st8" d="M704.9,328.2c0.6,0,1.1,0.5,1.1,1.1c0,0.6-0.5,1.1-1.1,1.1c-0.6,0-1.1-0.5-1.1-1.1
				C703.8,328.6,704.3,328.2,704.9,328.2z"/>
			<path class="st8" d="M704.9,348.1c0.6,0,1.1,0.5,1.1,1.1c0,0.6-0.5,1.1-1.1,1.1c-0.6,0-1.1-0.5-1.1-1.1
				C703.8,348.6,704.3,348.1,704.9,348.1z"/>
			<path class="st8" d="M704.9,368.1c0.6,0,1.1,0.5,1.1,1.1c0,0.6-0.5,1.1-1.1,1.1c-0.6,0-1.1-0.5-1.1-1.1
				C703.8,368.6,704.3,368.1,704.9,368.1z"/>
			<path class="st8" d="M704.9,388c0.6,0,1.1,0.5,1.1,1.1c0,0.6-0.5,1.1-1.1,1.1c-0.6,0-1.1-0.5-1.1-1.1
				C703.8,388.5,704.3,388,704.9,388z"/>
			<path class="st8" d="M704.9,408c0.6,0,1.1,0.5,1.1,1.1c0,0.6-0.5,1.1-1.1,1.1c-0.6,0-1.1-0.5-1.1-1.1
				C703.8,408.5,704.3,408,704.9,408z"/>
			<path class="st8" d="M704.9,427.9c0.6,0,1.1,0.5,1.1,1.1c0,0.6-0.5,1.1-1.1,1.1c-0.6,0-1.1-0.5-1.1-1.1
				C703.8,428.4,704.3,427.9,704.9,427.9z"/>
			<path class="st8" d="M704.9,447.9c0.6,0,1.1,0.5,1.1,1.1c0,0.6-0.5,1.1-1.1,1.1c-0.6,0-1.1-0.5-1.1-1.1
				C703.8,448.4,704.3,447.9,704.9,447.9z"/>
			<path class="st8" d="M704.9,467.9c0.6,0,1.1,0.5,1.1,1.1c0,0.6-0.5,1.1-1.1,1.1c-0.6,0-1.1-0.5-1.1-1.1
				C703.8,468.4,704.3,467.9,704.9,467.9z"/>
			<path class="st8" d="M704.9,487.8c0.6,0,1.1,0.5,1.1,1.1c0,0.6-0.5,1.1-1.1,1.1c-0.6,0-1.1-0.5-1.1-1.1
				C703.8,488.3,704.3,487.8,704.9,487.8z"/>
			<path class="st8" d="M687.9,467.9c0.6,0,1.1,0.5,1.1,1.1c0,0.6-0.5,1.1-1.1,1.1c-0.6,0-1.1-0.5-1.1-1.1
				C686.8,468.4,687.3,467.9,687.9,467.9z"/>
			<path class="st8" d="M687.9,487.8c0.6,0,1.1,0.5,1.1,1.1c0,0.6-0.5,1.1-1.1,1.1c-0.6,0-1.1-0.5-1.1-1.1
				C686.8,488.3,687.3,487.8,687.9,487.8z"/>
			<path class="st8" d="M670.9,467.9c0.6,0,1.1,0.5,1.1,1.1c0,0.6-0.5,1.1-1.1,1.1s-1.1-0.5-1.1-1.1
				C669.8,468.4,670.3,467.9,670.9,467.9z"/>
			<path class="st8" d="M670.9,487.8c0.6,0,1.1,0.5,1.1,1.1c0,0.6-0.5,1.1-1.1,1.1s-1.1-0.5-1.1-1.1
				C669.8,488.3,670.3,487.8,670.9,487.8z"/>
			<path class="st8" d="M568.8,467.9c0.6,0,1.1,0.5,1.1,1.1c0,0.6-0.5,1.1-1.1,1.1s-1.1-0.5-1.1-1.1
				C567.8,468.4,568.2,467.9,568.8,467.9z"/>
			<path class="st8" d="M568.8,487.8c0.6,0,1.1,0.5,1.1,1.1c0,0.6-0.5,1.1-1.1,1.1s-1.1-0.5-1.1-1.1
				C567.8,488.3,568.2,487.8,568.8,487.8z"/>
		</g>
		<g class="st5">
			<path class="st8" d="M596.9,72.7c-14.7,0-26.7,12-26.7,26.7c0,14.7,12,26.7,26.7,26.7s26.7-12,26.7-26.7
				C623.6,84.7,611.6,72.7,596.9,72.7z M596.9,124c-13.6,0-24.7-11.1-24.7-24.7c0-13.6,11.1-24.7,24.7-24.7
				c13.6,0,24.7,11.1,24.7,24.7C621.5,113,610.5,124,596.9,124z"/>
			<path class="st8" d="M596.9,87.2c-6.7,0-12.2,5.5-12.2,12.2c0,6.7,5.5,12.2,12.2,12.2c6.7,0,12.2-5.5,12.2-12.2
				C609.1,92.7,603.6,87.2,596.9,87.2z M596.9,109.6c-5.6,0-10.2-4.6-10.2-10.2s4.6-10.2,10.2-10.2s10.2,4.6,10.2,10.2
				S602.5,109.6,596.9,109.6z"/>
		</g>
		<g class="st5">
			<polygon class="st11" points="91.2,279.8 86.9,273.1 82.7,279.8 			"/>
			<polygon class="st11" points="91.2,314.5 86.9,307.8 82.7,314.5 			"/>
			<polygon class="st11" points="91.2,198.2 86.9,191.5 82.7,198.2 			"/>
			<polygon class="st11" points="91.2,232.9 86.9,226.2 82.7,232.9 			"/>
			<polygon class="st11" points="91.2,247.6 86.9,240.9 82.7,247.6 			"/>
		</g>
		<g class="st5">
			<polygon class="st13" points="704.2,26.9 697.5,31.1 704.2,35.4 			"/>
			<polygon class="st13" points="738.9,26.9 732.2,31.1 738.9,35.4 			"/>
			<polygon class="st13" points="622.5,26.9 615.8,31.1 622.5,35.4 			"/>
			<polygon class="st13" points="657.2,26.9 650.5,31.1 657.2,35.4 			"/>
			<polygon class="st13" points="671.9,26.9 665.2,31.1 671.9,35.4 			"/>
		</g>
		<path class="st9" d="M86.9,469c-0.9,0-1.6-0.8-1.6-1.7l0,0c0-0.9,0.8-1.6,1.7-1.6l0,0c0.9,0,1.6,0.8,1.6,1.7l0,0
			C88.5,468.3,87.8,469,86.9,469L86.9,469C86.9,469,86.9,469,86.9,469z M91.9,467.4c-0.1-0.9,0.6-1.7,1.5-1.8l0,0
			c0.9-0.1,1.7,0.6,1.8,1.5l0,0c0.1,0.9-0.6,1.7-1.5,1.8l0,0c0,0,0,0,0,0l0,0c0,0-0.1,0-0.1,0l0,0C92.6,468.9,91.9,468.2,91.9,467.4
			z M80.1,468.5c-0.9-0.1-1.5-1-1.4-1.8l0,0c0.1-0.9,1-1.5,1.8-1.4l0,0c0.9,0.1,1.5,0.9,1.4,1.9l0,0c-0.1,0.8-0.8,1.4-1.6,1.4l0,0
			C80.3,468.5,80.2,468.5,80.1,468.5z M98.4,466.6c-0.2-0.9,0.4-1.8,1.3-1.9l0,0c0.9-0.2,1.8,0.4,1.9,1.3l0,0
			c0.2,0.9-0.4,1.8-1.3,1.9l0,0c-0.1,0-0.2,0-0.3,0l0,0C99.2,467.9,98.6,467.4,98.4,466.6z M73.5,467.1L73.5,467.1L73.5,467.1
			c-0.9-0.2-1.4-1.1-1.2-2l0,0c0.2-0.9,1.1-1.4,2-1.2l0,0c0.9,0.2,1.4,1.1,1.2,2l0,0c-0.2,0.7-0.9,1.2-1.6,1.2l0,0
			C73.8,467.2,73.6,467.2,73.5,467.1z M104.8,465.1c-0.3-0.9,0.2-1.8,1-2.1h0c0.9-0.3,1.8,0.2,2.1,1.1l0,0c0.3,0.9-0.2,1.8-1.1,2.1
			l0,0l0,0l0,0c-0.2,0-0.3,0.1-0.5,0.1l0,0C105.7,466.3,105,465.8,104.8,465.1z M67.1,465.1c-0.8-0.3-1.3-1.3-0.9-2.1l0,0
			c0.3-0.8,1.3-1.3,2.1-0.9h0c0.8,0.3,1.3,1.3,0.9,2.1l0,0c-0.2,0.6-0.9,1-1.5,1l0,0C67.5,465.2,67.3,465.1,67.1,465.1z M111,462.9
			c-0.4-0.8,0-1.8,0.8-2.2l0,0c0.8-0.4,1.8,0,2.2,0.8l0,0c0.4,0.8,0,1.8-0.8,2.2l0,0c-0.2,0.1-0.4,0.1-0.7,0.1l0,0
			C111.9,463.9,111.3,463.5,111,462.9z M60.9,462.3L60.9,462.3L60.9,462.3c-0.8-0.4-1.1-1.4-0.7-2.2l0,0c0.4-0.8,1.4-1.1,2.2-0.7
			l0,0c0.8,0.4,1.1,1.4,0.7,2.2l0,0c-0.3,0.6-0.9,0.9-1.4,0.9l0,0C61.4,462.4,61.2,462.4,60.9,462.3z M116.9,460
			c-0.5-0.8-0.2-1.8,0.6-2.3l0,0c0.8-0.5,1.8-0.2,2.3,0.5l0,0c0.5,0.8,0.2,1.8-0.6,2.3l0,0l0,0l0,0c-0.3,0.2-0.6,0.2-0.8,0.2l0,0
			C117.7,460.8,117.2,460.5,116.9,460z M55.1,458.8c-0.7-0.5-0.9-1.5-0.4-2.3l0,0c0.5-0.7,1.5-0.9,2.3-0.4l0,0
			c0.7,0.5,0.9,1.5,0.4,2.3l0,0c-0.3,0.5-0.8,0.7-1.4,0.7l0,0C55.7,459,55.4,459,55.1,458.8z M122.4,456.4c-0.6-0.7-0.4-1.7,0.3-2.3
			l0,0c0.7-0.6,1.7-0.4,2.3,0.3l0,0c0.6,0.7,0.4,1.7-0.3,2.3l0,0c-0.3,0.2-0.6,0.3-1,0.3l0,0C123.2,457.1,122.7,456.9,122.4,456.4z
			 M49.8,454.6c-0.7-0.6-0.8-1.6-0.2-2.3l0,0c0.6-0.7,1.6-0.8,2.3-0.2l0,0c0.7,0.6,0.8,1.6,0.2,2.3l0,0c-0.3,0.4-0.8,0.6-1.2,0.6
			l0,0C50.5,455,50.1,454.9,49.8,454.6z M127.5,452.3c-0.6-0.6-0.6-1.7,0-2.3l0,0c0.7-0.6,1.7-0.6,2.3,0l0,0c0.6,0.6,0.6,1.7,0,2.3
			l0,0c-0.3,0.3-0.7,0.5-1.1,0.5l0,0C128.3,452.8,127.8,452.6,127.5,452.3z M44.9,449.9c-0.6-0.7-0.6-1.7,0.1-2.3l0,0
			c0.7-0.6,1.7-0.6,2.3,0.1l0,0c0.6,0.7,0.6,1.7-0.1,2.3l0,0c-0.3,0.3-0.7,0.4-1.1,0.4l0,0C45.7,450.4,45.2,450.3,44.9,449.9z
			 M132.1,447.6c-0.7-0.6-0.8-1.6-0.2-2.3l0,0c0.6-0.7,1.6-0.8,2.3-0.2l0,0c0.7,0.6,0.8,1.6,0.2,2.3l0,0c-0.3,0.4-0.8,0.6-1.3,0.6
			l0,0C132.8,447.9,132.4,447.8,132.1,447.6z M40.6,444.7c-0.5-0.7-0.4-1.8,0.4-2.3l0,0c0.7-0.5,1.8-0.4,2.3,0.4l0,0
			c0.5,0.7,0.4,1.8-0.4,2.3l0,0c-0.3,0.2-0.6,0.3-1,0.3l0,0C41.4,445.4,40.9,445.1,40.6,444.7z M136.1,442.3c-0.8-0.5-1-1.5-0.5-2.3
			l0,0c0.5-0.8,1.5-1,2.3-0.5l0,0c0.8,0.5,1,1.5,0.5,2.3l0,0c-0.3,0.5-0.8,0.8-1.4,0.8l0,0C136.7,442.6,136.4,442.5,136.1,442.3z
			 M37,439c-0.5-0.8-0.2-1.8,0.6-2.2l0,0c0.8-0.5,1.8-0.2,2.2,0.6l0,0c0.4,0.8,0.2,1.8-0.6,2.2l0,0c-0.3,0.1-0.5,0.2-0.8,0.2l0,0
			C37.8,439.8,37.3,439.5,37,439z M139.5,436.7c-0.8-0.4-1.1-1.4-0.7-2.2l0,0c0.4-0.8,1.4-1.1,2.2-0.7l0,0c0.8,0.4,1.1,1.4,0.7,2.2
			l0,0l0,0l0,0c-0.3,0.6-0.9,0.9-1.5,0.9l0,0C140,436.9,139.8,436.8,139.5,436.7z M34,432.9c-0.4-0.8,0-1.8,0.9-2.2l0,0
			c0.8-0.3,1.8,0,2.2,0.9l0,0c0.4,0.8,0,1.8-0.9,2.1l0,0c-0.2,0.1-0.4,0.1-0.6,0.1l0,0C34.8,433.9,34.2,433.6,34,432.9z
			 M142.2,430.7c-0.9-0.3-1.3-1.2-1-2.1l0,0c0.3-0.9,1.2-1.3,2.1-1l0,0c0.9,0.3,1.3,1.2,1,2.1l0,0c-0.2,0.7-0.9,1.1-1.5,1.1l0,0
			C142.6,430.8,142.4,430.8,142.2,430.7z M31.7,426.6c-0.3-0.9,0.2-1.8,1.1-2l0,0c0.9-0.3,1.8,0.2,2,1.1l0,0c0.3,0.9-0.2,1.8-1.1,2
			l0,0c-0.2,0-0.3,0.1-0.5,0.1l0,0C32.6,427.8,31.9,427.3,31.7,426.6z M144.3,424.5c-0.9-0.2-1.4-1.1-1.2-2l0,0
			c0.2-0.9,1.1-1.4,2-1.2l0,0c0.9,0.2,1.4,1.1,1.2,2l0,0c-0.2,0.8-0.8,1.3-1.6,1.3l0,0C144.5,424.5,144.4,424.5,144.3,424.5z
			 M30.2,420c-0.2-0.9,0.4-1.7,1.3-1.9l0,0c0.9-0.2,1.7,0.4,1.9,1.3l0,0c0.2,0.9-0.4,1.7-1.3,1.9l0,0c-0.1,0-0.2,0-0.3,0l0,0
			C31,421.3,30.3,420.8,30.2,420z M145.6,418c-0.9-0.1-1.5-0.9-1.4-1.8l0,0c0.1-0.9,0.9-1.5,1.8-1.4l0,0c0.9,0.1,1.5,0.9,1.4,1.8
			l0,0c-0.1,0.8-0.8,1.5-1.6,1.5l0,0C145.7,418,145.6,418,145.6,418z M29.4,413.3C29.4,413.3,29.4,413.3,29.4,413.3L29.4,413.3
			c0-0.9,0.6-1.7,1.5-1.7l0,0c0.9,0,1.7,0.6,1.7,1.5l0,0c0,0.9-0.6,1.7-1.5,1.7l0,0c0,0-0.1,0-0.1,0l0,0
			C30.2,414.8,29.4,414.1,29.4,413.3z M144.5,409.8C144.5,409.8,144.5,409.8,144.5,409.8L144.5,409.8c0-0.1,0-0.1,0-0.1l0,0
			c0-0.9,0.7-1.6,1.6-1.6l0,0c0.9,0,1.6,0.7,1.6,1.6l0,0c0,0,0,0,0,0.1l0,0c0,0,0,0,0,0.1l0,0c0,0.9-0.7,1.6-1.6,1.6l0,0
			C145.2,411.5,144.5,410.7,144.5,409.8z M30.9,408.2c-0.9-0.1-1.6-0.8-1.5-1.7l0,0c0-0.9,0.8-1.6,1.7-1.5l0,0
			c0.9,0,1.6,0.8,1.5,1.7l0,0C32.6,407.6,31.9,408.2,30.9,408.2L30.9,408.2C31,408.2,31,408.2,30.9,408.2z M144.1,403.3
			c-0.1-0.9,0.5-1.7,1.4-1.8l0,0c0.9-0.1,1.7,0.5,1.8,1.4l0,0l0,0l0,0c0.1,0.9-0.5,1.7-1.4,1.8l0,0c-0.1,0-0.1,0-0.2,0l0,0
			C144.9,404.8,144.2,404.2,144.1,403.3z M31.5,401.7c-0.9-0.2-1.5-1-1.3-1.9l0,0l0,0l0,0c0.2-0.9,1-1.5,1.9-1.3l0,0
			c0.9,0.2,1.5,1,1.3,1.9l0,0c-0.1,0.8-0.8,1.4-1.6,1.4l0,0C31.7,401.7,31.6,401.7,31.5,401.7z M143,397c-0.2-0.9,0.3-1.8,1.2-2l0,0
			c0.9-0.2,1.8,0.3,2,1.2l0,0c0.2,0.9-0.3,1.8-1.2,2l0,0c-0.1,0-0.3,0-0.4,0l0,0C143.9,398.3,143.2,397.8,143,397z M32.8,395.2
			c-0.9-0.3-1.4-1.2-1.1-2l0,0c0.3-0.9,1.2-1.4,2-1.1l0,0c0.9,0.3,1.4,1.2,1.1,2l0,0c-0.2,0.7-0.9,1.2-1.6,1.2l0,0
			C33.1,395.3,32.9,395.3,32.8,395.2z M141.2,390.9c-0.3-0.9,0.1-1.8,1-2.1l0,0c0.9-0.3,1.8,0.1,2.1,1l0,0c0.3,0.9-0.1,1.8-1,2.1
			l0,0c-0.2,0.1-0.4,0.1-0.6,0.1l0,0C142.1,392,141.5,391.6,141.2,390.9z M34.8,389c-0.8-0.4-1.2-1.3-0.9-2.1l0,0
			c0.4-0.8,1.3-1.2,2.1-0.9l0,0c0.8,0.4,1.2,1.3,0.9,2.1l0,0c-0.3,0.6-0.9,1-1.5,1l0,0C35.2,389.1,35,389.1,34.8,389z M138.7,385
			c-0.4-0.8-0.1-1.8,0.7-2.2l0,0c0.8-0.4,1.8-0.1,2.2,0.7l0,0c0,0,0,0,0,0l0,0c0.4,0.8,0.1,1.8-0.7,2.2l0,0
			c-0.2,0.1-0.5,0.2-0.7,0.2l0,0C139.6,385.9,139,385.6,138.7,385z M37.5,383c-0.8-0.5-1.1-1.4-0.6-2.2l0,0l0,0l0,0
			c0.4-0.8,1.4-1.1,2.2-0.6l0,0c0.8,0.4,1.1,1.4,0.6,2.2v0c-0.3,0.5-0.9,0.8-1.4,0.8l0,0C38.1,383.2,37.8,383.1,37.5,383z
			 M135.6,379.5c-0.5-0.8-0.3-1.8,0.5-2.3l0,0c0.8-0.5,1.8-0.3,2.3,0.5l0,0c0.5,0.8,0.3,1.8-0.5,2.3l0,0c-0.3,0.2-0.6,0.3-0.9,0.3
			l0,0C136.4,380.2,135.9,380,135.6,379.5z M40.9,377.4c-0.7-0.5-0.9-1.6-0.4-2.3l0,0c0.5-0.7,1.6-0.9,2.3-0.4l0,0
			c0.7,0.5,0.9,1.6,0.4,2.3l0,0c-0.3,0.4-0.8,0.7-1.3,0.7l0,0C41.5,377.7,41.2,377.6,40.9,377.4z M131.8,374.3
			c-0.6-0.7-0.5-1.7,0.2-2.3l0,0c0.7-0.6,1.7-0.5,2.3,0.2l0,0c0.6,0.7,0.5,1.7-0.2,2.3l0,0c-0.3,0.2-0.7,0.4-1,0.4l0,0
			C132.6,374.9,132.1,374.7,131.8,374.3z M44.9,372.1c-0.7-0.6-0.7-1.6-0.1-2.3l0,0l0,0l0,0c0.6-0.7,1.6-0.7,2.3-0.1l0,0
			c0.7,0.6,0.7,1.7,0.1,2.3l0,0c-0.3,0.4-0.8,0.5-1.2,0.5l0,0C45.6,372.6,45.2,372.4,44.9,372.1z M127.5,369.6
			c-0.6-0.6-0.7-1.7,0-2.3l0,0c0.6-0.7,1.7-0.7,2.3,0l0,0c0.7,0.6,0.7,1.7,0,2.3l0,0c-0.3,0.3-0.8,0.5-1.2,0.5l0,0
			C128.2,370.1,127.8,369.9,127.5,369.6z M49.5,367.4c-0.6-0.7-0.5-1.7,0.2-2.3l0,0c0,0,0,0,0,0l0,0c0.7-0.6,1.7-0.5,2.3,0.2l0,0
			c0.6,0.7,0.5,1.7-0.2,2.3l0,0c-0.3,0.3-0.7,0.4-1.1,0.4l0,0C50.3,368,49.8,367.8,49.5,367.4z M122.6,365.5
			c-0.7-0.5-0.9-1.6-0.3-2.3l0,0c0.5-0.7,1.6-0.9,2.3-0.3l0,0c0.7,0.5,0.9,1.6,0.3,2.3l0,0c-0.3,0.4-0.8,0.6-1.3,0.6l0,0
			C123.3,365.8,122.9,365.7,122.6,365.5z M54.6,363.2c-0.5-0.7-0.3-1.8,0.4-2.3l0,0c0.7-0.5,1.8-0.3,2.3,0.4l0,0
			c0.5,0.7,0.3,1.8-0.4,2.3l0,0c-0.3,0.2-0.6,0.3-0.9,0.3l0,0C55.4,364,54.9,363.7,54.6,363.2z M117.4,361.8L117.4,361.8
			c-0.8-0.5-1-1.5-0.6-2.3l0,0c0.5-0.8,1.5-1,2.3-0.6l0,0c0.8,0.5,1,1.5,0.6,2.3l0,0c-0.3,0.5-0.9,0.8-1.4,0.8l0,0
			C117.9,362.1,117.6,362,117.4,361.8z M60.1,359.7c-0.4-0.8-0.1-1.8,0.7-2.2l0,0c0.8-0.4,1.8-0.1,2.2,0.7l0,0
			c0.4,0.8,0.1,1.8-0.7,2.2l0,0c-0.2,0.1-0.5,0.2-0.8,0.2l0,0C61,360.5,60.4,360.2,60.1,359.7z M111.7,358.9
			c-0.8-0.4-1.2-1.3-0.8-2.2l0,0c0.4-0.8,1.3-1.2,2.2-0.8l0,0c0,0,0,0,0,0l0,0c0.8,0.4,1.2,1.3,0.8,2.2l0,0c-0.3,0.6-0.9,1-1.5,1
			l0,0C112.1,359,111.9,359,111.7,358.9z M66,356.8c-0.3-0.8,0.1-1.8,0.9-2.1l0,0c0.8-0.3,1.8,0.1,2.1,0.9l0,0
			c0.3,0.8-0.1,1.8-0.9,2.1l0,0c-0.2,0.1-0.4,0.1-0.6,0.1l0,0C66.9,357.8,66.3,357.4,66,356.8z M105.7,356.6
			c-0.9-0.3-1.3-1.2-1.1-2.1l0,0c0.3-0.9,1.2-1.3,2.1-1.1l0,0l0,0l0,0c0.9,0.3,1.3,1.2,1.1,2.1l0,0c-0.2,0.7-0.9,1.1-1.6,1.1l0,0
			C106.1,356.6,105.9,356.6,105.7,356.6z M72.2,354.5c-0.2-0.9,0.3-1.8,1.2-2l0,0c0.9-0.2,1.8,0.3,2,1.2l0,0c0.2,0.9-0.3,1.8-1.2,2
			l0,0c-0.1,0-0.3,0.1-0.4,0.1l0,0C73.1,355.8,72.4,355.3,72.2,354.5z M99.6,354.9L99.6,354.9c-0.9-0.2-1.5-1-1.3-1.9l0,0
			c0.2-0.9,1-1.5,1.9-1.3l0,0c0.9,0.2,1.5,1,1.3,1.9l0,0c-0.2,0.8-0.8,1.3-1.6,1.3l0,0C99.8,355,99.7,355,99.6,354.9z M78.6,353.1
			c-0.1-0.9,0.5-1.7,1.4-1.9l0,0l0,0l0,0c0.9-0.1,1.7,0.5,1.9,1.4l0,0c0.1,0.9-0.5,1.7-1.4,1.8l0,0c-0.1,0-0.2,0-0.2,0l0,0
			C79.4,354.5,78.7,353.9,78.6,353.1z M93.2,354.1c-0.9-0.1-1.6-0.9-1.5-1.8l0,0c0.1-0.9,0.9-1.6,1.8-1.5l0,0
			c0.9,0.1,1.6,0.9,1.5,1.8l0,0c-0.1,0.9-0.8,1.5-1.6,1.5l0,0C93.3,354.1,93.3,354.1,93.2,354.1z M85.2,352.3c0-0.9,0.7-1.7,1.6-1.7
			l0,0c0.9,0,1.7,0.7,1.7,1.6l0,0c0,0.9-0.7,1.7-1.6,1.7l0,0c0,0,0,0,0,0l0,0C85.9,353.9,85.2,353.2,85.2,352.3z"/>
		<rect x="457.6" class="st14" width="78.4" height="78.4"/>
		<path class="st4" d="M526.4,68.9h-59.4V9.5h59.4V68.9z M468.1,67.9h57.4V10.5h-57.4V67.9z"/>
		<path class="st4" d="M516.4,78.9h-59.4V19.5h59.4V78.9z M458.1,77.9h57.4V20.5h-57.4V77.9z"/>
		<path class="st4" d="M711,552.2c-58.4,0-106-47.5-106-106s47.5-106,106-106c58.4,0,106,47.5,106,106S769.4,552.2,711,552.2z
			 M711,341.3c-57.9,0-105,47.1-105,105s47.1,105,105,105c57.9,0,105-47.1,105-105S768.9,341.3,711,341.3z"/>
		<rect class="st4" width="229.1" height="6.1"/>
		<g class="st5">
			<g>
				<path class="st15" d="M586.9,426v15.7h-15.7V426H586.9z M586.2,440.9v-14.2H572v14.2H586.2z"/>
			</g>
			<g>
				<path class="st15" d="M572,411.1v15.7h-15.7v-15.7H572z M571.2,426v-14.2h-14.2V426H571.2z"/>
			</g>
			<g>
				<path class="st15" d="M572,396.2v15.7h-15.7v-15.7H572z M571.2,411.1v-14.2h-14.2v14.2H571.2z"/>
			</g>
			<g>
				<path class="st15" d="M557.1,411.1v15.7h-15.7v-15.7H557.1z M556.3,426v-14.2h-14.2V426H556.3z"/>
			</g>
			<g>
				<path class="st15" d="M586.9,411.1v15.7h-15.7v-15.7H586.9z M586.2,426v-14.2H572V426H586.2z"/>
			</g>
			<g>
				<path class="st15" d="M586.9,396.2v15.7h-15.7v-15.7H586.9z M586.2,411.1v-14.2H572v14.2H586.2z"/>
			</g>
			<g>
				<path class="st15" d="M586.9,381.2v15.7h-15.7v-15.7H586.9z M586.2,396.2V382H572v14.2H586.2z"/>
			</g>
			<g>
				<path class="st15" d="M572,426v15.7h-15.7V426H572z M571.2,440.9v-14.2h-14.2v14.2H571.2z"/>
			</g>
			<g>
				<path class="st15" d="M557.1,426v15.7h-15.7V426H557.1z M556.3,440.9v-14.2h-14.2v14.2H556.3z"/>
			</g>
			<g>
				<path class="st15" d="M542.1,426v15.7h-15.7V426H542.1z M541.4,440.9v-14.2h-14.2v14.2H541.4z"/>
			</g>
		</g>
		<path class="st3" d="M457.7,393.1h-61.9V455l22.9,22.4h61.4V416L457.7,393.1z M478.6,416.6v58.3l-20.9-20.9v-58.7L478.6,416.6z
			 M397.3,394.6h58.9v58.9h-58.9V394.6z M397.9,455h58.7l20.9,20.9h-58.3L397.9,455z"/>
		<g class="st5">
			<polygon class="st12" points="294.4,466 314.4,445.9 334.5,466 339.8,466 314.4,440.6 289,466 			"/>
			<polygon class="st12" points="279.4,443.5 279.4,448.8 314.4,413.8 349.4,448.8 349.4,443.5 314.4,408.5 			"/>
			<polygon class="st12" points="279.4,459.5 279.4,464.9 314.4,429.9 349.4,464.9 349.4,459.5 314.4,424.5 			"/>
			<polygon class="st12" points="280.5,330 279.4,331.1 279.4,336.5 285.8,330 			"/>
			<polygon class="st12" points="296.5,330 279.4,347.2 279.4,352.5 301.9,330 			"/>
			<polygon class="st12" points="310.4,466 314.4,462 318.4,466 323.8,466 314.4,456.6 305.1,466 			"/>
			<polygon class="st12" points="312.6,330 279.4,363.2 279.4,368.6 314.4,333.5 349.4,368.6 349.4,363.2 316.2,330 			"/>
			<polygon class="st12" points="326.9,330 349.4,352.5 349.4,347.2 332.3,330 			"/>
			<polygon class="st12" points="343,330 349.4,336.5 349.4,331.1 348.3,330 			"/>
			<polygon class="st12" points="279.4,411.4 279.4,416.7 314.4,381.7 349.4,416.7 349.4,411.4 314.4,376.3 			"/>
			<polygon class="st12" points="279.4,427.4 279.4,432.8 314.4,397.8 349.4,432.8 349.4,427.4 314.4,392.4 			"/>
			<polygon class="st12" points="279.4,379.3 279.4,384.6 314.4,349.6 349.4,384.6 349.4,379.3 314.4,344.2 			"/>
			<polygon class="st12" points="279.4,395.3 279.4,400.7 314.4,365.6 349.4,400.7 349.4,395.3 314.4,360.3 			"/>
		</g>
		<rect x="378.3" y="354.1" class="st10" width="198.5" height="14.6"/>
		<rect x="279.7" y="487.8" class="st4" width="161.5" height="12.2"/>
		<path class="st4" d="M426.5,330.3c2.7,0,5.3,0.8,7.8,2.5c4.3,2.9,9.3,2.9,13.7,0c5-3.3,10.7-3.3,15.7,0c4.3,2.9,9.3,2.9,13.7,0
			c0.4-0.3,1-0.2,1.2,0.3c0.3,0.4,0.2,1-0.2,1.2c-5,3.3-10.7,3.3-15.7,0c-4.3-2.9-9.3-2.9-13.7,0c-5,3.3-10.7,3.3-15.7,0
			c-4.3-2.9-9.3-2.9-13.7,0c-5,3.3-10.7,3.3-15.7,0c-0.4-0.3-0.5-0.8-0.3-1.2c0.3-0.4,0.8-0.5,1.2-0.3c4.3,2.9,9.3,2.9,13.7,0
			C421.2,331.1,423.9,330.3,426.5,330.3z"/>
		<path class="st4" d="M426.5,344.5c2.7,0,5.3,0.8,7.8,2.5c4.3,2.9,9.3,2.9,13.7,0c5-3.3,10.7-3.3,15.7,0c4.3,2.9,9.3,2.9,13.7,0
			c0.4-0.3,1-0.2,1.2,0.2c0.3,0.4,0.2,1-0.2,1.2c-5,3.3-10.7,3.3-15.7,0c-4.3-2.9-9.3-2.9-13.7,0c-5,3.3-10.7,3.3-15.7,0
			c-4.3-2.9-9.3-2.9-13.7,0c-5,3.3-10.7,3.3-15.7,0c-0.4-0.3-0.5-0.8-0.3-1.2c0.3-0.4,0.8-0.5,1.2-0.2c4.3,2.9,9.3,2.9,13.7,0
			C421.2,345.3,423.9,344.5,426.5,344.5z"/>
		<path class="st4" d="M426.5,358.7c2.7,0,5.3,0.8,7.8,2.5c4.3,2.9,9.3,2.9,13.7,0c5-3.3,10.7-3.3,15.7,0c4.3,2.9,9.3,2.9,13.7,0
			c0.4-0.3,1-0.2,1.2,0.3c0.3,0.4,0.2,1-0.2,1.2c-5,3.3-10.7,3.3-15.7,0c-4.3-2.9-9.3-2.9-13.7,0c-5,3.3-10.7,3.3-15.7,0
			c-4.3-2.9-9.3-2.9-13.7,0c-5,3.3-10.7,3.3-15.7,0c-0.4-0.3-0.5-0.8-0.3-1.2c0.3-0.4,0.8-0.5,1.2-0.3c4.3,2.9,9.3,2.9,13.7,0
			C421.2,359.5,423.9,358.7,426.5,358.7z"/>
		<path class="st4" d="M426.5,372.9c2.7,0,5.3,0.8,7.8,2.5c4.3,2.9,9.3,2.9,13.7,0c5-3.3,10.7-3.3,15.7,0c4.3,2.9,9.3,2.9,13.7,0
			c0.4-0.3,1-0.2,1.2,0.2c0.3,0.4,0.2,1-0.2,1.2c-5,3.3-10.7,3.3-15.7,0c-4.3-2.9-9.3-2.9-13.7,0c-5,3.3-10.7,3.3-15.7,0
			c-4.3-2.9-9.3-2.9-13.7,0c-5,3.3-10.7,3.3-15.7,0c-0.4-0.3-0.5-0.8-0.3-1.2c0.3-0.4,0.8-0.5,1.2-0.2c4.3,2.9,9.3,2.9,13.7,0
			C421.2,373.7,423.9,372.9,426.5,372.9z"/>
		<path class="st16" d="M530.3,268c-6.7,0-12.2,5.5-12.2,12.2s5.5,12.2,12.2,12.2c6.7,0,12.2-5.5,12.2-12.2S537.1,268,530.3,268z
			 M530.3,290.3c-5.6,0-10.2-4.6-10.2-10.2s4.6-10.2,10.2-10.2s10.2,4.6,10.2,10.2S535.9,290.3,530.3,290.3z"/>
		<path class="st16" d="M153.4,456c-6.7,0-12.2,5.5-12.2,12.2c0,6.7,5.5,12.2,12.2,12.2c6.7,0,12.2-5.5,12.2-12.2
			C165.6,461.5,160.1,456,153.4,456z M153.4,478.4c-5.6,0-10.2-4.6-10.2-10.2s4.6-10.2,10.2-10.2s10.2,4.6,10.2,10.2
			S159,478.4,153.4,478.4z"/>
		<path class="st16" d="M16.4,27C9.7,27,4.2,32.5,4.2,39.2c0,6.7,5.5,12.2,12.2,12.2c6.7,0,12.2-5.5,12.2-12.2
			C28.6,32.5,23.1,27,16.4,27z M16.4,49.4c-5.6,0-10.2-4.6-10.2-10.2S10.8,29,16.4,29s10.2,4.6,10.2,10.2S22,49.4,16.4,49.4z"/>
		<g class="st5">
			<path class="st7" d="M426.4,62.9c-0.5-0.4-1-0.8-1.5-1.2L341.7,145c0.4,0.5,0.8,1,1.2,1.5L426.4,62.9z"/>
			<path class="st7" d="M406.1,52.2c-0.7-0.2-1.4-0.4-2.1-0.6l-72.5,72.5c0.2,0.7,0.4,1.4,0.6,2.1L406.1,52.2z"/>
			<path class="st7" d="M420.4,58.6c-0.6-0.3-1.1-0.7-1.7-1l-81.2,81.2c0.3,0.6,0.6,1.1,1,1.7L420.4,58.6z"/>
			<path class="st7" d="M413.6,55c-0.6-0.3-1.2-0.5-1.9-0.8l-77.6,77.6c0.3,0.6,0.5,1.2,0.8,1.9L413.6,55z"/>
			<path class="st7" d="M397.6,50.4c-0.8-0.1-1.6-0.2-2.4-0.3L330,115.3c0.1,0.8,0.2,1.6,0.3,2.4L397.6,50.4z"/>
			<path class="st7" d="M431.2,67.2c-0.2-0.2-0.4-0.4-0.7-0.7l-84.1,84.1c0.2,0.2,0.4,0.5,0.7,0.7c0.2,0.2,0.4,0.4,0.7,0.7
				l84.1-84.1C431.6,67.6,431.4,67.4,431.2,67.2z"/>
			<path class="st7" d="M387.8,49.8c-0.9,0-1.9,0.1-2.8,0.1l-55.2,55.2c-0.1,0.9-0.1,1.9-0.1,2.8L387.8,49.8z"/>
			<path class="st7" d="M331.1,96.2L376,51.2c-1.2,0.3-2.4,0.6-3.6,0.9L332,92.6C331.7,93.8,331.4,95,331.1,96.2z"/>
			<path class="st7" d="M448.5,113.3c0.1-0.9,0.1-1.9,0.1-2.8l-58.2,58.2c0.9,0,1.9-0.1,2.8-0.1L448.5,113.3z"/>
			<path class="st7" d="M448.3,103.1c-0.1-0.8-0.2-1.6-0.3-2.4l-67.3,67.3c0.8,0.1,1.6,0.2,2.4,0.3L448.3,103.1z"/>
			<path class="st7" d="M358.9,58c-4.2,2.5-8.2,5.6-11.8,9.2c-3.6,3.6-6.7,7.6-9.2,11.8L358.9,58z"/>
			<path class="st7" d="M446.2,125.9c0.3-1.2,0.6-2.4,0.9-3.6l-44.9,44.9c1.2-0.3,2.4-0.6,3.6-0.9L446.2,125.9z"/>
			<path class="st7" d="M419.3,160.5c4.2-2.5,8.2-5.6,11.8-9.2c3.6-3.6,6.7-7.6,9.2-11.8L419.3,160.5z"/>
			<path class="st7" d="M440.7,79.7c-0.3-0.6-0.6-1.1-1-1.7l-81.9,81.9c0.6,0.3,1.1,0.7,1.7,1L440.7,79.7z"/>
			<path class="st7" d="M436.6,73.4c-0.4-0.5-0.8-1-1.2-1.5l-83.6,83.6c0.5,0.4,1,0.8,1.5,1.2L436.6,73.4z"/>
			<path class="st7" d="M446.7,94.4c-0.2-0.7-0.4-1.4-0.6-2.1l-74,74c0.7,0.2,1.4,0.4,2.1,0.6L446.7,94.4z"/>
			<path class="st7" d="M444.1,86.6c-0.3-0.6-0.5-1.2-0.8-1.9l-78.7,78.7c0.6,0.3,1.2,0.5,1.9,0.8L444.1,86.6z"/>
		</g>
		<g class="st5">
			<path class="st13" d="M21.3,455.7c-0.2-0.2-0.5-0.4-0.8-0.6l-42.2,42.2c0.2,0.3,0.4,0.5,0.6,0.8L21.3,455.7z"/>
			<path class="st13" d="M11,450.3c-0.4-0.1-0.7-0.2-1.1-0.3l-36.7,36.7c0.1,0.4,0.2,0.7,0.3,1.1L11,450.3z"/>
			<path class="st13" d="M18.3,453.6c-0.3-0.2-0.6-0.3-0.8-0.5l-41.2,41.2c0.2,0.3,0.3,0.6,0.5,0.8L18.3,453.6z"/>
			<path class="st13" d="M14.8,451.7c-0.3-0.1-0.6-0.3-0.9-0.4l-39.4,39.4c0.1,0.3,0.3,0.6,0.4,0.9L14.8,451.7z"/>
			<path class="st13" d="M6.7,449.4c-0.4-0.1-0.8-0.1-1.2-0.1l-33.1,33.1c0,0.4,0.1,0.8,0.1,1.2L6.7,449.4z"/>
			<path class="st13" d="M23.7,457.9c-0.1-0.1-0.2-0.2-0.3-0.3l-42.6,42.6c0.1,0.1,0.2,0.2,0.3,0.3c0.1,0.1,0.2,0.2,0.3,0.3
				l42.6-42.6C24,458.1,23.8,458,23.7,457.9z"/>
			<path class="st13" d="M1.8,449.1c-0.5,0-0.9,0-1.4,0.1l-28,28c0,0.5-0.1,0.9-0.1,1.4L1.8,449.1z"/>
			<path class="st13" d="M-27,472.6l22.8-22.8c-0.6,0.1-1.2,0.3-1.8,0.5l-20.5,20.5C-26.7,471.4-26.9,472-27,472.6z"/>
			<path class="st13" d="M32.5,481.3c0-0.5,0.1-0.9,0.1-1.4L3.1,509.3c0.5,0,0.9,0,1.4-0.1L32.5,481.3z"/>
			<path class="st13" d="M32.4,476.1c0-0.4-0.1-0.8-0.1-1.2L-1.9,509c0.4,0.1,0.8,0.1,1.2,0.1L32.4,476.1z"/>
			<path class="st13" d="M-12.9,453.2c-2.1,1.3-4.2,2.8-6,4.7c-1.8,1.8-3.4,3.9-4.7,6L-12.9,453.2z"/>
			<path class="st13" d="M31.4,487.7c0.2-0.6,0.3-1.2,0.5-1.8L9.1,508.6c0.6-0.1,1.2-0.3,1.8-0.5L31.4,487.7z"/>
			<path class="st13" d="M17.7,505.2c2.1-1.3,4.2-2.8,6-4.7c1.8-1.8,3.4-3.9,4.7-6L17.7,505.2z"/>
			<path class="st13" d="M28.6,464.2c-0.2-0.3-0.3-0.6-0.5-0.8l-41.5,41.5c0.3,0.2,0.6,0.3,0.8,0.5L28.6,464.2z"/>
			<path class="st13" d="M26.5,461.1c-0.2-0.3-0.4-0.5-0.6-0.8l-42.4,42.4c0.2,0.2,0.5,0.4,0.8,0.6L26.5,461.1z"/>
			<path class="st13" d="M31.6,471.7c-0.1-0.4-0.2-0.7-0.3-1.1l-37.5,37.5c0.3,0.1,0.7,0.2,1.1,0.3L31.6,471.7z"/>
			<path class="st13" d="M30.3,467.7c-0.1-0.3-0.3-0.6-0.4-0.9L-10,506.7c0.3,0.1,0.6,0.3,0.9,0.4L30.3,467.7z"/>
		</g>
		<g class="st5">
			<rect x="229.6" y="369" class="st7" width="14.3" height="14.3"/>
			<path class="st7" d="M244.4,406.2v15.3h-15.3v-15.3H244.4z M243.4,420.5v-13.3h-13.3v13.3H243.4z"/>
		</g>
		<g class="st5">
			
				<rect x="677.7" y="59" transform="matrix(6.123234e-17 -1 1 6.123234e-17 618.6643 751.0759)" class="st7" width="14.3" height="14.3"/>
			<path class="st7" d="M715,58.5h15.3v15.3H715V58.5z M729.3,59.5H716v13.3h13.3V59.5z"/>
		</g>
		<rect x="11.4" y="74.7" class="st10" width="2" height="199.5"/>
		<g class="st5">
			<rect x="201.2" y="128.5" class="st7" width="52.2" height="2.2"/>
			<rect x="287.3" y="128.5" class="st7" width="12.4" height="2.2"/>
		</g>
		<g class="st5">
			<rect x="366.7" y="421.4" class="st7" width="52.2" height="2.2"/>
			<rect x="320.4" y="421.4" class="st7" width="12.4" height="2.2"/>
		</g>
		<g class="st5">
			<circle class="st7" cx="403.2" cy="233.1" r="1.4"/>
			<circle class="st7" cx="403.2" cy="251.6" r="1.4"/>
			<circle class="st7" cx="384.9" cy="233.1" r="1.4"/>
			<circle class="st7" cx="384.9" cy="251.6" r="1.4"/>
			<circle class="st7" cx="366.7" cy="233.1" r="1.4"/>
			<circle class="st7" cx="366.7" cy="251.6" r="1.4"/>
			<circle class="st7" cx="348.4" cy="233.1" r="1.4"/>
			<circle class="st7" cx="348.4" cy="251.6" r="1.4"/>
			<path class="st7" d="M330.2,234.6c-0.8,0-1.4-0.6-1.4-1.4s0.6-1.4,1.4-1.4c0.8,0,1.4,0.6,1.4,1.4S330.9,234.6,330.2,234.6z"/>
			<path class="st7" d="M330.2,253c-0.8,0-1.4-0.6-1.4-1.4c0-0.8,0.6-1.4,1.4-1.4c0.8,0,1.4,0.6,1.4,1.4
				C331.6,252.3,330.9,253,330.2,253z"/>
			<circle class="st7" cx="311.9" cy="233.1" r="1.4"/>
			<circle class="st7" cx="311.9" cy="251.6" r="1.4"/>
			<path class="st7" d="M293.6,234.6c-0.8,0-1.4-0.6-1.4-1.4s0.6-1.4,1.4-1.4c0.8,0,1.4,0.6,1.4,1.4S294.4,234.6,293.6,234.6z"/>
			<path class="st7" d="M293.6,253c-0.8,0-1.4-0.6-1.4-1.4c0-0.8,0.6-1.4,1.4-1.4c0.8,0,1.4,0.6,1.4,1.4
				C295.1,252.3,294.4,253,293.6,253z"/>
		</g>
		<g class="st5">
			<circle class="st7" cx="11.9" cy="401.9" r="1.4"/>
			<circle class="st7" cx="11.9" cy="383.7" r="1.4"/>
			<circle class="st7" cx="11.9" cy="365.4" r="1.4"/>
			<circle class="st7" cx="11.9" cy="347.2" r="1.4"/>
			<path class="st7" d="M10.5,328.9c0-0.8,0.6-1.4,1.4-1.4s1.4,0.6,1.4,1.4c0,0.8-0.6,1.4-1.4,1.4S10.5,329.7,10.5,328.9z"/>
			<circle class="st7" cx="11.9" cy="310.6" r="1.4"/>
			<path class="st7" d="M10.5,292.4c0-0.8,0.6-1.4,1.4-1.4s1.4,0.6,1.4,1.4c0,0.8-0.6,1.4-1.4,1.4S10.5,293.2,10.5,292.4z"/>
		</g>
	</g>
</g>
</svg>
